<?xml version="1.0" encoding="utf-8"?>
<!-- Generator: Adobe Illustrator 26.5.0, SVG Export Plug-In . SVG Version: 6.00 Build 0)  -->
<svg version="1.1" id="Layer_1" xmlns="http://www.w3.org/2000/svg" xmlns:xlink="http://www.w3.org/1999/xlink" x="0px" y="0px"
	 viewBox="0 0 300 60.6" style="enable-background:new 0 0 300 60.6;" xml:space="preserve">
<style type="text/css">
	.st0{fill:#0053A0;}
	.st1{fill:#EE1C25;}
</style>
<g>
	<g>
		<path class="st0" d="M30.8,0.6H9.2c0,0-4.2-0.6-6.7,3.5c-2.7,4.5,0.7,11,0.7,11l9.3,15.1c0,0,1,1.2,0.2,2.4c-0.7,1.1-2,1-2,1h-10
			l2.7,14.2h22.1c0,0,5.2,0.6,7.8-4.8c2.3-5-1-9.4-1-9.4l-9.3-17.3c0,0-0.3-0.6,0-1c0.3-0.3,0.7-0.3,0.7-0.3h9.6L30.8,0.6z"/>
		<path class="st0" d="M65.3,47.9c0,0-15.3,1.6-25.7-14.2c-5.7-8.7-7.1-32.6,15.6-33.2c5.9,0,10.7,0.1,10.7,0.1l2.9,14.6
			c0,0-5.4,0.1-10.1,0.1c-4.7,0-6.8,3.1-6.8,6.4s0.4,9.7,11.3,12.2c3.7,0.9,6.4,0.1,6.4,0.1L65.3,47.9z"/>
	</g>
	<rect x="74.1" y="16.4" class="st0" width="16.4" height="31.1"/>
	<polygon class="st0" points="182.3,0.2 177.8,21.3 173.7,0.2 157.5,0.2 169.1,47.5 185.6,47.5 189.3,29.2 192.6,44.5 199.3,16.7 
		196.9,0.2 	"/>
	<polygon class="st1" points="205.8,0.2 204.4,7 234.3,7 236.2,0.2 	"/>
	<polygon class="st0" points="204,9.2 201.8,17.5 215.9,17.5 218.5,9.2 	"/>
	<polygon class="st1" points="201.2,20.5 199.6,27 227,27 229,20.5 	"/>
	<polygon class="st0" points="199.4,29.8 213.7,29.8 209.7,47.4 195.2,47.4 	"/>
	<polygon class="st1" points="232.3,47.5 241.4,47.5 253.3,0.2 244.4,0.2 	"/>
	<polygon class="st1" points="259.1,0.2 268.1,0.2 274.6,16.2 290.1,0.2 300,0.2 278.2,24.1 288.5,47.4 279.2,47.4 271.9,31 
		256.4,47.4 246.1,47.4 268.5,22.8 	"/>
	<polygon class="st0" points="120.3,0.2 154.2,0.2 158,14.3 138.3,14.3 138.3,16.9 155.2,16.9 150.8,30.9 138.1,30.9 138.1,33.2 
		159.1,33.2 154.7,47.4 120.4,47.4 	"/>
	<g>
		<path class="st0" d="M130.6,53.1c-5-2.1-11.5-5.3-15.3-9.3c-7.1-7.2-7.9-12.8-7.9-12.8s11.4-8.8,8.7-19.2
			C113.2,0,105.8,0.4,94.5,0.4l-20-0.1l-2.7,14.5c0,0,19.5-0.1,22,0c2.5,0.1,5.5,0.2,5.4,4.1c0,3.4-7.4,7.4-7.4,7.4
			s-1.1,8.4,9.3,21.2c4,5,8.8,9.4,13.2,12.9L130.6,53.1z"/>
	</g>
</g>
</svg>
